# AST/ASF file generated using VICON BodyLanguage
# -----------------------------------------------
:version 1.10
:name VICON
:units
  mass 1.0
  length 0.45
  angle deg
:documentation
   .ast/.asf automatically generated from VICON data using
   VICON BodyBuilder and BodyLanguage model FoxedUp or BRILLIANT.MOD
:root
   order TX TY TZ RX RY RZ
   axis XYZ
   position 0 0 0  
   orientation 0 0 0 
:bonedata
  begin
     id 1 
     name lhipjoint
     direction 0.528046 -0.759594 0.379717 
     length 2.39752 
     axis 0 0 0  XYZ
  end
  begin
     id 2 
     name lfemur
     direction 0.34202 -0.939693 0  
     length 7.31175  
     axis 0 0 20  XYZ
    dof rx ry rz
    limits (-160.0 20.0)
           (-70.0 70.0)
           (-60.0 70.0)
  end
  begin
     id 3 
     name ltibia
     direction 0.34202 -0.939693 0   
     length 7.52482   
     axis 0 0 20   XYZ
    dof rx
    limits (-10.0 170.0)
  end
  begin
     id 4 
     name lfoot
     direction 0.0675379 -0.185559 0.980309   
     length 2.00961   
     axis -90 7.62852e-016 20   XYZ
    dof rx rz
    limits (-45.0 90.0)
           (-70.0 20.0)
  end
  begin
     id 5 
     name ltoes
     direction 1.5352e-011 -4.22286e-011 1   
     length 1.01383   
     axis -90 7.62852e-016 20   XYZ
    dof rx
    limits (-90.0 20.0)
  end
  begin
     id 6 
     name rhipjoint
     direction -0.510274 -0.769251 0.384544   
     length 2.36742  
     axis 0 0 0  XYZ 
  end
  begin
     id 7 
     name rfemur
     direction -0.34202 -0.939693 0   
     length 7.45325   
     axis 0 0 -20   XYZ
    dof rx ry rz
    limits (-160.0 20.0)
           (-70.0 70.0)
           (-70.0 60.0)
  end
  begin
     id 8 
     name rtibia
     direction -0.34202 -0.939693 0   
     length 7.49587   
     axis 0 0 -20   XYZ
    dof rx
    limits (-10.0 170.0)
 end
 begin
     id 9 
     name rfoot
     direction -0.106475 -0.292536 0.950308   
     length 2.20898  
     axis -90 -7.62852e-016 -20   XYZ
    dof rx rz
    limits (-45.0 90.0)
           (-20.0 70.0)
  end
  begin
     id 10 
     name rtoes
     direction -1.53597e-011 -4.22023e-011 1   
     length 1.10065   
     axis -90 -7.62852e-016 -20   XYZ
    dof rx
    limits (-90.0 20.0)
  end
  begin
     id 11 
     name lowerback
     direction 0.0260024 0.998026 -0.0571652   
     length 2.11214   
     axis 0 0 0   XYZ
    dof rx ry rz
    limits (-20.0 45.0)
           (-30.0 30.0)
           (-30.0 30.0)
  end
  begin
     id 12 
     name upperback
     direction 0.0216202 0.999542 -0.0211766   
     length 2.11689   
     axis 0 0 0   XYZ
    dof rx ry rz
    limits (-20.0 45.0)
           (-30.0 30.0)
           (-30.0 30.0)
  end
  begin
     id 13 
     name thorax
     direction 0.00883312 0.999944 0.00589057   
     length 2.11821   
     axis 0 0 0   XYZ
    dof rx ry rz
    limits (-20.0 45.0)
           (-30.0 30.0)
           (-30.0 30.0)
  end
  begin
     id 14 
     name lowerneck
     direction -0.059386 0.994433 0.0870401   
     length 1.81176   
     axis 0 0 0   XYZ
    dof rx ry rz
    limits (-20.0 45.0)
           (-30.0 30.0)
           (-30.0 30.0)
  end
  begin
     id 15 
     name upperneck
     direction 0.0506457 0.97328 -0.223967   
     length 1.82382   
     axis 0 0 0   XYZ
    dof rx ry rz
    limits (-20.0 45.0)
           (-30.0 30.0)
           (-30.0 30.0)
  end
  begin
     id 16
     name head
     direction 0.0205902 0.996147 -0.0852487  
     length 1.84805  
     axis 0 0 0   XYZ
    dof rx ry rz
    limits (-20.0 45.0)
           (-30.0 30.0)
           (-30.0 30.0)
  end
  begin
     id 17 
     name lclavicle
     direction 0.949493 0.303881 -0.0782325  
     length 3.60584  
     axis 0 0 0   XYZ
    dof ry rz
    limits (-20.0 10.0)
           (0.0 20.0)
  end
  begin
     id 18 
     name lhumerus
     direction 1 -4.48965e-011 1.48782e-027   
     length 4.95681   
     axis 180 -30 -90   XYZ
    dof rx ry rz
    limits (-60.0 90.0)
           (-90.0 90.0)
           (-90.0 90.0)
  end
  begin
     id 19
     name lradius
     direction 1 -4.48952e-011 2.06528e-027   
     length 3.40915   
     axis 180 -30 -90   XYZ
    dof rx
    limits (-10.0 170.0)
  end
  begin
     id 20
     name lwrist
     direction 1 -4.48964e-011 1.28021e-027   
     length 1.70457   
     axis -1.61767e-015 90 90   XYZ
    dof ry
    limits (-180.0 0.0)
 end
  begin
     id 21 
     name lhand
     direction 1 -4.49094e-011 2.54887e-027   
     length 0.616403   
     axis -1.63363e-015 90 90   XYZ
    dof rx rz
    limits (-90.0 90.0)
           (-45.0 45.0)
  end
  begin
     id 22 
     name lfingers
     direction 1 -4.49002e-011 5.11407e-027   
     length 0.49696   
     axis -3.26723e-015 90 90   XYZ
    dof rx
    limits (0.0 90.0)
  end
  begin
     id 23
     name lthumb
     direction 0.707107 -6.34998e-011 0.707107   
     length 0.713539   
     axis -90 45 -2.25915e-014   XYZ
    dof rx rz
    limits (-45.0 45.0)
           (-45.0 45.0)
  end
  begin
     id 24 
     name rclavicle
     direction -0.937751 0.334612 -0.0930482   
     length 3.46287  
     axis 0 0 0   XYZ 
    dof ry rz
    limits (-10.0 20.0)
           (-20.0 0.0)
  end
  begin
     id 25 
     name rhumerus
     direction -1 -4.48962e-011 3.59972e-027  
     length 5.352   
     axis 180 30 90   XYZ
    dof rx ry rz
    limits (-90.0 60.0)
           (-90.0 90.0)
           (-90.0 90.0)
  end
  begin
     id 26 
     name rradius
     direction -1 -4.48987e-011 -3.76925e-027   
     length 3.43721   
     axis 180 30 90   XYZ
    dof rx
    limits (-10.0 170.0)
  end
  begin
     id 27 
     name rwrist
     direction -1 -4.48943e-011 1.28112e-027   
     length 1.7186   
     axis -1.61767e-015 -90 -90   XYZ
    dof ry
    limits (-180.0 0.0)
  end
  begin
     id 28
     name rhand
     direction -1 -4.49027e-011 2.55483e-027   
     length 0.72009   
     axis -1.63363e-015 -90 -90   XYZ
    dof rx rz
    limits (-90.0 90.0)
           (-45.0 45.0)
  end
  begin
     id 29
     name rfingers
     direction -1 -4.48827e-011 5.14506e-027   
     length 0.580555   
     axis -3.26723e-015 -90 -90   XYZ
    dof rx
    limits (0.0 90.0)
  end
  begin
     id 30
     name rthumb
     direction -0.707107 -6.34936e-011 0.707107   
     length 0.833564   
     axis -90 -45 2.25915e-014   XYZ
    dof rx rz
    limits (-45.0 45.0)
           (-45.0 45.0)
  end
:hierarchy
  begin
    root lhipjoint rhipjoint lowerback
    lhipjoint lfemur
    lfemur ltibia
    ltibia lfoot
    lfoot ltoes
    rhipjoint rfemur
    rfemur rtibia
    rtibia rfoot
    rfoot rtoes
    lowerback upperback
    upperback thorax
    thorax lowerneck lclavicle rclavicle
    lowerneck upperneck
    upperneck head
    lclavicle lhumerus
    lhumerus lradius
    lradius lwrist
    lwrist lhand lthumb
    lhand lfingers
    rclavicle rhumerus
    rhumerus rradius
    rradius rwrist
    rwrist rhand rthumb
    rhand rfingers
  end

#!OML:ASF H:\Terrain\Patient Classification 1\Terrain2\Thursday\justin.ASF
:FULLY-SPECIFIED
:DEGREES
668
root 24.9016 17.4601 -21.1417 506.053 -80.3431 216.2
lowerback 3.12584 2.05489 6.7138
upperback 2.49035 2.74744 3.23582
thorax 0.982096 1.38498 -0.478626
lowerneck -12.5942 -1.08805 -9.24229
upperneck 39.6179 -2.92031 4.99018
head 16.5882 -2.55628 3.19523
rclavicle -3.28989e-014 -2.8625e-014
rhumerus -31.2749 -14.733 -76.8127
rradius 26.1294
rwrist -9.44149
rhand -22.1947 12.5596
rfingers 7.12502
rthumb 4.22079 -17.3783
lclavicle -3.28989e-014 -2.8625e-014
lhumerus -37.7197 10.8281 82.0988
lradius 25.7676
lwrist -1.64945
lhand -15.6386 22.1261
lfingers 7.12502
lthumb 10.5488 51.8414
rfemur 10.3967 0.954584 27.0205
rtibia 23.9077
rfoot -12.824 0.495025
rtoes 0.484852
lfemur -24.3901 1.86704 -12.3425
ltibia 23.532
lfoot 1.48241 -5.64632
ltoes 17.9087
669
root 24.8093 17.4773 -21.1163 507.143 -80.4155 215.019
lowerback 3.14159 1.93979 6.54816
upperback 2.54655 2.58883 3.22435
thorax 1.01448 1.3056 -0.396083
lowerneck -12.6726 -0.903289 -9.25592
upperneck 39.6629 -2.57528 4.86843
head 16.5923 -2.43386 3.20317
rclavicle -1.02374e-014 1.59028e-015
rhumerus -31.3262 -14.4132 -76.8253
rradius 26.0181
rwrist -9.30101
rhand -21.8145 12.5057
rfingers 7.12502
rthumb 4.58786 -17.4247
lclavicle -1.02374e-014 1.59028e-015
lhumerus -37.7614 10.8395 82.1754
lradius 26.0482
lwrist -1.38009
lhand -15.4685 22.2856
lfingers 7.12502
lthumb 10.7129 51.9925
rfemur 9.7969 0.879158 26.5774
rtibia 25.6232
rfoot -12.034 0.824104
rtoes 2.00708
lfemur -23.8497 1.873 -12.7214
ltibia 23.3675
lfoot 1.20782 -5.66667
ltoes 17.0217
670
root 24.7184 17.4933 -21.0906 507.423 -80.442 214.609
lowerback 3.27207 1.87991 6.61152
upperback 2.56309 2.52166 3.18046
thorax 0.959906 1.27221 -0.479587
lowerneck -12.8169 -0.803528 -9.2205
upperneck 39.8644 -2.43586 4.85546
head 16.7213 -2.38322 3.22021
rclavicle -1.35174e-014 3.97569e-015
rhumerus -31.4825 -14.4461 -76.7963
rradius 25.9139
rwrist -9.02616
rhand -21.6972 12.5837
rfingers 7.12502
rthumb 4.70117 -17.3441
lclavicle -1.35174e-014 3.97569e-015
lhumerus -37.8689 10.5114 82.3499
lradius 26.3373
lwrist -0.932719
lhand -15.7849 21.8819
lfingers 7.12502
lthumb 10.4076 51.6043
rfemur 9.17167 0.685433 26.2932
rtibia 27.4583
rfoot -11.2684 0.950938
rtoes 1.93716
lfemur -23.3458 2.04119 -12.9932
ltibia 23.3154
lfoot 0.995277 -5.88219
ltoes 15.5256
671
root 24.6268 17.5112 -21.07 508.19 -80.4144 213.784
lowerback 3.28742 1.95608 6.56774
upperback 2.58711 2.62272 3.15201
thorax 0.981043 1.32353 -0.486266
lowerneck -12.8318 -0.844727 -9.15198
upperneck 39.893 -2.47108 4.73346
head 16.7424 -2.40398 3.14727
rclavicle -2.55438e-014 -5.725e-014
rhumerus -31.6996 -14.5328 -76.729
rradius 25.9604
rwrist -8.96788
rhand -21.6488 12.4469
rfingers 7.12502
rthumb 4.74791 -17.4799
lclavicle -2.55438e-014 -5.725e-014
lhumerus -37.8397 10.2268 82.5194
lradius 26.5535
lwrist -0.965163
lhand -15.6084 21.3792
lfingers 7.12502
lthumb 10.5779 51.093
rfemur 8.40333 0.678628 26.057
rtibia 29.4142
rfoot -10.5497 0.822207
rtoes 0.810251
lfemur -22.8975 2.0648 -13.2158
ltibia 23.2741
lfoot 0.919347 -5.87359
ltoes 16.7042
672
root 24.5349 17.5236 -21.0488 509.948 -80.5534 212.02
lowerback 3.19505 1.97113 6.24996
upperback 2.58927 2.63239 3.09675
thorax 1.02173 1.32765 -0.364367
lowerneck -12.6563 -0.810358 -9.09667
upperneck 39.7532 -2.35854 4.53446
head 16.607 -2.37024 3.06267
rclavicle 1.49089e-014 -4.77083e-015
rhumerus -31.9149 -14.3822 -76.7199
rradius 26.0395
rwrist -9.01541
rhand -21.5879 12.1981
rfingers 7.12502
rthumb 4.8067 -17.7274
lclavicle 1.49089e-014 -4.77083e-015
lhumerus -37.9534 9.88218 82.77
lradius 26.9957
lwrist -0.892709
lhand -15.5235 21.6716
lfingers 7.12502
lthumb 10.6598 51.3812
rfemur 7.50266 0.500607 25.5307
rtibia 31.4753
rfoot -9.87695 0.78939
rtoes -0.043214
lfemur -22.9132 7.56279 -14.7636
ltibia 23.1862
lfoot 2.42907 -11.1612
ltoes 20.7464
673
root 24.449 17.5436 -21.0276 511.335 -80.715 210.587
lowerback 3.2157 1.89116 5.98418
upperback 2.57065 2.52763 3.04188
thorax 0.974677 1.27271 -0.273714
lowerneck -12.5731 -0.710928 -9.02868
upperneck 39.7611 -2.14012 4.28316
head 16.5642 -2.30688 2.97374
rclavicle 1.70955e-014 9.54166e-015
rhumerus -32.0837 -14.2225 -76.7206
rradius 26.0545
rwrist -8.89963
rhand -21.6288 12.0868
rfingers 7.12502
rthumb 4.7672 -17.8396
lclavicle 1.70955e-014 9.54166e-015
lhumerus -38.1739 9.61103 82.971
lradius 27.5261
lwrist -0.65676
lhand -15.8659 21.5088
lfingers 7.12502
lthumb 10.3295 51.2351
rfemur 6.57412 0.224955 25.0607
rtibia 33.573
rfoot -9.12792 0.611913
rtoes 0.120597
lfemur -22.6359 9.60297 -15.577
ltibia 22.9954
lfoot 3.04316 -13.1795
ltoes 22.3552
674
root 24.3685 17.5717 -21.0132 512.434 -80.7144 209.489
lowerback 3.24893 1.90454 5.73208
upperback 2.5577 2.5457 3.03696
thorax 0.931371 1.27822 -0.141399
lowerneck -12.5083 -0.731368 -9.05068
upperneck 39.7431 -2.12977 4.17093
head 16.5374 -2.32184 2.92799
rclavicle 1.59028e-015 1.59028e-014
rhumerus -32.2043 -14.488 -76.5481
rradius 26.0262
rwrist -8.57563
rhand -21.4959 12.1721
rfingers 7.12502
rthumb 4.89554 -17.7514
lclavicle 1.59028e-015 1.59028e-014
lhumerus -38.2075 9.38237 83.1127
lradius 27.9408
lwrist -0.703783
lhand -15.9844 20.5398
lfingers 7.12502
lthumb 10.2152 50.2718
rfemur 5.49816 0.161863 24.8246
rtibia 35.7216
rfoot -8.22906 0.309264
rtoes 1.00528
lfemur -22.0878 8.64638 -15.5946
ltibia 22.7045
lfoot 2.72111 -12.2547
ltoes 21.7851
